<svg xmlns="http://www.w3.org/2000/svg" viewBox="0 0 32 32">
  <defs/>
  <style>
    .st0{fill:#fff}
  </style>
  <g id="ICON">
    <path fill="#2c7df7" d="M30.7 9.8c-.8-1.9-2-3.6-3.4-5.1-1.5-1.5-3.2-2.6-5.1-3.4C20.3.4 18.2 0 16 0s-4.3.4-6.2 1.3c-1.9.8-3.6 2-5.1 3.4S2.1 7.9 1.3 9.8C.4 11.7 0 13.8 0 16s.4 4.3 1.3 6.2c.8 1.9 2 3.6 3.4 5.1 1.5 1.5 3.2 2.6 5.1 3.4 2 .8 4.1 1.3 6.2 1.3 2.2 0 4.3-.4 6.2-1.3 1.9-.8 3.6-2 5.1-3.4 1.5-1.5 2.6-3.2 3.4-5.1.8-2 1.3-4.1 1.3-6.2 0-2.2-.4-4.3-1.3-6.2z"/>
    <path d="M11.5 24.5h1.4v3h-1.4zM24.4 18c-.5-1.9-1.8-3.2-3.7-3.8-.8-.2-1.8-.3-2.6-.3l4-4.5-.5-1.2h-3.8V3.9h-1.4v4.3H13V3.9h-1.4v4.3H9.2v1.4h2.4v9.8c0 1.1.6 2.1 1.7 2.6.4.2.8.3 1.2.3.7 0 1.4-.3 1.9-.7l-.9-1c-.4.4-1 .5-1.5.2-.6-.3-1-.8-1-1.4V9.6h6.9L15.3 15l1 1c.6-.5 2.4-.9 4-.4 1 .3 2.3 1 2.7 2.8.4 1.4.1 2.7-.7 3.9-1.1 1.5-3.1 2.3-5.4 2.3h-.8v3h1.4V26c2.4-.1 4.6-1.2 5.9-2.9 1.1-1.5 1.5-3.3 1-5.1z" class="st0"/>
  </g>
</svg>
