<svg xmlns="http://www.w3.org/2000/svg" viewBox="0 0 32 32">
  <defs/>
  <style>
    .st0{fill:#fff}
  </style>
  <g id="ICON">
    <path fill="#2c7df7" d="M16 32C7.2 32 0 24.8 0 16S7.2 0 16 0s16 7.2 16 16-7.2 16-16 16z"/>
    <path d="M24.2 16.2l-1 .6L16 5 8.7 16.8l-1-.6L15.2 4c.2-.2.4-.4.7-.4.3 0 .6.2.7.4l7.6 12.2z" class="st0"/>
    <path d="M21.4 20.2c0 1-.4 2-1 2.9l-3.8 5.4c-.2.2-.4.4-.7.4-.3 0-.5-.1-.7-.4L7.5 17.4l2.2 1.3 6.3 8.9 3.6-5.1c.8-1.2 1.1-2.6.6-3.5-.4-.9-1.4-1.3-2.8-1.3l-.6-.9.6-.6.4-.4.8-.9h-3.8v4.3l1.3.8 1.8-1v1.2l-1.8 1-2.4-1.4v-4.9h-2.1l.6-1.1h1.4v-2.2h1.1v2.2h4.8l.6.9-1.1 1.2-.7.8c1.3.2 2.3.8 2.9 1.8.2.4.3.9.4 1.4-.1.1-.1.2-.2.3zM24.4 17.4l-.6.8-1.5 2.2c0-.6 0-1.1-.2-1.6l2.3-1.4z" class="st0"/>
  </g>
</svg>
