<?xml version="1.0" encoding="UTF-8"?>
<svg width="32px" height="32px" viewBox="0 0 32 32" version="1.1" xmlns="http://www.w3.org/2000/svg" xmlns:xlink="http://www.w3.org/1999/xlink">
    <!-- Generator: Sketch 52.5 (67469) - http://www.bohemiancoding.com/sketch -->
    <title>Group</title>
    <desc>Created with Sketch.</desc>
    <g id="Symbols" stroke="none" stroke-width="1" fill="none" fill-rule="evenodd">
        <g id="Controls/TextField/Complex" transform="translate(-12.000000, -10.000000)">
            <g id="Group" transform="translate(12.000000, 10.000000)">
                <rect id="Rectangle" fill="#6F96FF" x="0" y="0" width="32" height="32" rx="16"></rect>
                <g id="tzBTC_logo_single_circle_tzETH_logo_single_circle" transform="translate(7.000000, 4.000000)" fill="#FFFFFF">
                    <path d="M17,13 L16.5009416,13.8048866 L15.1368487,16 C15.1740139,15.45973 15.1277161,14.9163128 15,14.3937507 L15.0241682,14.3556913 L17,13 Z" id="Path"></path>
                    <path d="M17,12.4264603 L16.0647326,13 L8.99307209,1.34652598 L1.94219528,12.9696115 L1,12.4062013 L8.28988959,0.390510078 C8.43687111,0.147822245 8.69859537,-0.00014954309 8.98060186,1.13412488e-07 L9.00658151,1.13412488e-07 C9.28855264,-1.29440395e-05 9.55021514,0.147923926 9.69729379,0.390510078 L17,12.4264603 Z" id="Path"></path>
                    <path d="M13.9977707,16.5190451 C13.9764321,17.4625771 13.6318136,18.4725057 12.9866764,19.36956 L12.9781409,19.381791 L9.187693,24.6543873 C9.03169399,24.8713691 8.77807025,25.000276 8.50770271,24.9999996 C8.23742209,24.9997326 7.98416752,24.8702896 7.82877936,24.6529895 L0,13.7230455 L2.21316922,15.0160337 L8.50663578,23.8024129 L12.1171281,18.7835218 C12.1210402,18.7786294 12.1235297,18.7747854 12.1270861,18.769893 C12.9642708,17.598865 13.1840585,16.2349372 12.6865133,15.2868623 C12.2437372,14.4446727 11.2639395,13.998417 9.85239061,13.998417 L9.82500607,13.998417 L9.26308941,13.0964704 L9.85239061,12.4629061 L10.2034107,12.0861923 L11.03206,11.1964766 L7.20177995,11.1964766 L7.20177995,15.3976399 L8.52761875,16.172734 L10.2901877,15.1453325 L10.2901877,16.3495589 L8.52655182,17.3780087 L6.14623018,15.9875221 L6.14623018,11.1964766 L4.05718053,11.1964766 L4.70338468,10.1603387 L6.14729711,10.1603387 L6.14729711,8 L7.20177995,8 L7.20177995,10.162086 L12.0385309,10.162086 L12.5954686,11.0542479 L11.4751917,12.2574258 L10.760704,13.0237835 C12.1064588,13.2117909 13.1079508,13.830678 13.6236338,14.8129996 C13.8411818,15.23587 13.9662058,15.6988154 13.9906578,16.1720351 C13.9999256,16.2874692 14.0023006,16.4033379 13.9977707,16.5190451 Z" id="Path"></path>
                </g>
            </g>
        </g>
    </g>
</svg>